%TF.GenerationSoftware,KiCad,Pcbnew,7.0.9*%
%TF.CreationDate,2023-12-20T10:12:01+01:00*%
%TF.ProjectId,DeHisser4IEM,44654869-7373-4657-9234-49454d2e6b69,rev?*%
%TF.SameCoordinates,PX77e7cd0PY40311b0*%
%TF.FileFunction,Legend,Top*%
%TF.FilePolarity,Positive*%
%FSLAX46Y46*%
G04 Gerber Fmt 4.6, Leading zero omitted, Abs format (unit mm)*
G04 Created by KiCad (PCBNEW 7.0.9) date 2023-12-20 10:12:01*
%MOMM*%
%LPD*%
G01*
G04 APERTURE LIST*
%ADD10C,0.150000*%
%ADD11C,0.120000*%
G04 APERTURE END LIST*
D10*
X7210588Y11242562D02*
X7115350Y11290181D01*
X7115350Y11290181D02*
X6972493Y11290181D01*
X6972493Y11290181D02*
X6829636Y11242562D01*
X6829636Y11242562D02*
X6734398Y11147324D01*
X6734398Y11147324D02*
X6686779Y11052086D01*
X6686779Y11052086D02*
X6639160Y10861610D01*
X6639160Y10861610D02*
X6639160Y10718753D01*
X6639160Y10718753D02*
X6686779Y10528277D01*
X6686779Y10528277D02*
X6734398Y10433039D01*
X6734398Y10433039D02*
X6829636Y10337800D01*
X6829636Y10337800D02*
X6972493Y10290181D01*
X6972493Y10290181D02*
X7067731Y10290181D01*
X7067731Y10290181D02*
X7210588Y10337800D01*
X7210588Y10337800D02*
X7258207Y10385420D01*
X7258207Y10385420D02*
X7258207Y10718753D01*
X7258207Y10718753D02*
X7067731Y10718753D01*
X12338207Y9020181D02*
X12004874Y9496372D01*
X11766779Y9020181D02*
X11766779Y10020181D01*
X11766779Y10020181D02*
X12147731Y10020181D01*
X12147731Y10020181D02*
X12242969Y9972562D01*
X12242969Y9972562D02*
X12290588Y9924943D01*
X12290588Y9924943D02*
X12338207Y9829705D01*
X12338207Y9829705D02*
X12338207Y9686848D01*
X12338207Y9686848D02*
X12290588Y9591610D01*
X12290588Y9591610D02*
X12242969Y9543991D01*
X12242969Y9543991D02*
X12147731Y9496372D01*
X12147731Y9496372D02*
X11766779Y9496372D01*
X812969Y9020181D02*
X336779Y9020181D01*
X336779Y9020181D02*
X336779Y10020181D01*
X5016666Y36115181D02*
X4683333Y36591372D01*
X4445238Y36115181D02*
X4445238Y37115181D01*
X4445238Y37115181D02*
X4826190Y37115181D01*
X4826190Y37115181D02*
X4921428Y37067562D01*
X4921428Y37067562D02*
X4969047Y37019943D01*
X4969047Y37019943D02*
X5016666Y36924705D01*
X5016666Y36924705D02*
X5016666Y36781848D01*
X5016666Y36781848D02*
X4969047Y36686610D01*
X4969047Y36686610D02*
X4921428Y36638991D01*
X4921428Y36638991D02*
X4826190Y36591372D01*
X4826190Y36591372D02*
X4445238Y36591372D01*
X5445238Y36638991D02*
X5778571Y36638991D01*
X5921428Y36115181D02*
X5445238Y36115181D01*
X5445238Y36115181D02*
X5445238Y37115181D01*
X5445238Y37115181D02*
X5921428Y37115181D01*
X6683333Y36638991D02*
X6350000Y36638991D01*
X6350000Y36115181D02*
X6350000Y37115181D01*
X6350000Y37115181D02*
X6826190Y37115181D01*
X7350000Y37115181D02*
X7350000Y36877086D01*
X7111905Y36972324D02*
X7350000Y36877086D01*
X7350000Y36877086D02*
X7588095Y36972324D01*
X7207143Y36686610D02*
X7350000Y36877086D01*
X7350000Y36877086D02*
X7492857Y36686610D01*
X8111905Y37115181D02*
X8111905Y36877086D01*
X7873810Y36972324D02*
X8111905Y36877086D01*
X8111905Y36877086D02*
X8350000Y36972324D01*
X7969048Y36686610D02*
X8111905Y36877086D01*
X8111905Y36877086D02*
X8254762Y36686610D01*
D11*
%TO.C,REF\u002A\u002A*%
X535000Y13742936D02*
X535000Y14197064D01*
X2005000Y13742936D02*
X2005000Y14197064D01*
X6960000Y7830000D02*
X6960000Y3500000D01*
X3360000Y7830000D02*
X3360000Y3500000D01*
X10560000Y7830000D02*
X10560000Y3500000D01*
X5740000Y7830000D02*
X5740000Y3500000D01*
X9340000Y7830000D02*
X9340000Y3500000D01*
X2140000Y7830000D02*
X2140000Y3500000D01*
X8155000Y13742936D02*
X8155000Y14197064D01*
X9625000Y13742936D02*
X9625000Y14197064D01*
X3075000Y13742936D02*
X3075000Y14197064D01*
X4545000Y13742936D02*
X4545000Y14197064D01*
X10695000Y13742936D02*
X10695000Y14197064D01*
X12165000Y13742936D02*
X12165000Y14197064D01*
X8950000Y35270000D02*
X8950000Y32770000D01*
X9450000Y26970000D02*
X9450000Y18070000D01*
X9450000Y18070000D02*
X3250000Y18070000D01*
X3250000Y28970000D02*
X1250000Y28970000D01*
X3250000Y18070000D02*
X3250000Y19270000D01*
X3250000Y31570000D02*
X3250000Y32770000D01*
X3750000Y32770000D02*
X3750000Y35270000D01*
X9450000Y32770000D02*
X9450000Y29570000D01*
X3250000Y22470000D02*
X3250000Y28970000D01*
X3250000Y31570000D02*
X1250000Y31570000D01*
X8950000Y32770000D02*
X9450000Y32770000D01*
X3250000Y32770000D02*
X3750000Y32770000D01*
X3750000Y35270000D02*
X8950000Y35270000D01*
%TD*%
M02*
